<svg xmlns="http://www.w3.org/2000/svg" xmlns:xlink="http://www.w3.org/1999/xlink" width="60" height="60" viewBox="0 0 60 60">
  <defs>
    <circle id="blancolan_vector-a" cx="30" cy="30" r="30"/>
  </defs>
  <g fill="none" fill-rule="evenodd">
    <mask id="blancolan_vector-b" fill="#fff">
      <use xlink:href="#blancolan_vector-a"/>
    </mask>
    <use fill="#10AA6E" fill-rule="nonzero" xlink:href="#blancolan_vector-a"/>
    <g mask="url(#blancolan_vector-b)">
      <g transform="translate(-1 32)">
        <path fill="#96E3C5" fill-rule="nonzero" d="M0,1 C0,0.44771525 0.44771525,0 1,0 L17,0 C17.5522847,0 18,0.44771525 18,1 L18,11 C18,11.5522847 17.5522847,12 17,12 L1,12 C0.44771525,12 0,11.5522847 0,11 L0,1 Z"/>
        <path fill="#FFF" d="M34.2547773,5.27272727 C32.8462241,5.27272727 30.4986353,5.27272727 27.2120111,5.27272727 L22.634213,2 L17,2.36363636 L17,10 C22.8689719,12.6666667 26.5077344,14 27.9162877,14 C30.0291176,14 43.0582351,8.18181818 44.1146501,7.45454545 C45.171065,6.72727273 44.4667884,4.90909091 42.3539585,5.27272727 C40.9454053,5.51515152 38.8325754,6 36.0154689,6.72727273 C36.2502278,5.75757576 35.6633306,5.27272727 34.2547773,5.27272727 Z"/>
        <path fill="#006F44" fill-rule="nonzero" d="M17,0 C17.5522847,-1.01453063e-16 18,0.44771525 18,1 L18,1 L18,1.788 L22.602953,1.50097814 C22.693677,1.49529497 22.7836328,1.51447247 22.8634348,1.5556369 L22.9395045,1.60402386 L27.3823792,5.02941176 L34.2547773,5.02941176 C35.1196342,5.02941176 35.8577962,5.43279752 36.2679207,6.03913591 L36.2679207,6.03913591 L42.2715767,5.03624523 C44.6647781,4.63646893 46.1110832,6.91441598 44.3924375,8.06279209 C42.6271692,9.2423208 30.1300148,14.4999994 28.268426,14.4999994 C26.8667159,14.4999994 23.5031706,13.3748384 18.0637513,11.1074225 L18.0637513,11.1074225 L17.9969396,11.0788163 C17.9567516,11.5942591 17.5257588,12 17,12 L17,12 L16,12 L16,0 Z M22.4778228,2.51077673 L18,2.791 L18.0009281,9.99715544 C23.1384005,12.1519125 26.487439,13.3178313 27.9504454,13.4802832 L28.0684752,13.4915354 L28.268426,13.5 C29.8867923,13.5 42.2216032,8.31062037 43.8368627,7.23132556 C44.5232467,6.7726929 43.8925413,5.77932479 42.4363403,6.0225783 L42.4363403,6.0225783 L36.6070264,6.99634573 L36.6135868,7.14087939 C36.6218135,8.19110043 35.7571364,9.02156811 34.3169339,9.20200387 C32.8375527,9.38734814 30.9350507,9.50023297 28.6072254,9.5412512 L28.6072254,9.5412512 L27.5835394,9.55443218 L26.5077344,9.55882353 C26.2315921,9.55882353 26.0077344,9.3349659 26.0077344,9.05882353 C26.0077344,8.78268115 26.2315921,8.55882353 26.5077344,8.55882353 C29.7753512,8.55882353 32.3385403,8.4420493 34.1926207,8.20976084 C35.2207751,8.08094852 35.6725725,7.60296396 35.6069128,7.04358366 C35.5419321,6.48998864 34.9979996,6.02941176 34.2547773,6.02941176 L34.2547773,6.02941176 L27.2120111,6.02941176 C27.1015505,6.02941176 26.9941991,5.99283327 26.9067196,5.9253879 L26.9067196,5.9253879 L22.4778228,2.51077673 Z"/>
      </g>
    </g>
    <g transform="translate(22.2 14.4)">
      <circle cx="7.8" cy="7.6" r="7" fill="#FFF"/>
      <path fill="#006F44" fill-rule="nonzero" d="M5.5773209,4.8 C5.71628287,4.8 5.8289338,4.90989374 5.8289338,5.04545455 L5.8289338,6.93638799 L6.48266286,6.21296186 C6.53042812,6.16010412 6.59917619,6.12982112 6.67140789,6.12982112 L7.94889674,6.12982112 C8.16563608,6.12982112 8.28096264,6.37932575 8.13746606,6.53778371 L7.00415704,7.78925492 L8.19303708,9.83342098 C8.2882034,9.99705041 8.16704479,10.2 7.97419355,10.2 L6.64611108,10.2 C6.55232243,10.2 6.46631815,10.1491128 6.42297647,10.0679751 L5.86961489,9.03205622 L5.8289338,9.07616206 L5.8289338,9.95454545 C5.8289338,10.0901063 5.71628287,10.2 5.5773209,10.2 L4.4516129,10.2 C4.31265093,10.2 4.2,10.0901063 4.2,9.95454545 L4.2,5.04545455 C4.2,4.90989374 4.31265093,4.8 4.4516129,4.8 L5.5773209,4.8 Z M10.2530059,6.27272727 C10.3919678,6.27272727 10.5046188,6.38262102 10.5046188,6.51818182 L10.5046188,6.54177469 C10.5536287,6.5106777 10.6046932,6.48203235 10.6577833,6.4558673 C10.8882851,6.34226617 11.3775294,6.27272727 11.7483871,6.27272727 C11.8873491,6.27272727 12,6.38262102 12,6.51818182 L12,7.54031188 C12,7.6855203 11.8714849,7.79898742 11.7233708,7.78455024 C11.7014155,7.78241018 11.4362977,7.77949569 11.3037757,7.77949569 C11.050801,7.77949569 10.8566921,7.82874448 10.7161854,7.92198025 C10.5893748,8.0061278 10.5217185,8.11230218 10.5046188,8.22382216 L10.5046188,9.95454545 C10.5046188,10.0901063 10.3919678,10.2 10.2530059,10.2 L8.98064516,10.2 C8.84168319,10.2 8.72903226,10.0901063 8.72903226,9.95454545 L8.72903226,6.51818182 C8.72903226,6.38262102 8.84168319,6.27272727 8.98064516,6.27272727 L10.2530059,6.27272727 Z"/>
    </g>
  </g>
</svg>
