<svg xmlns="http://www.w3.org/2000/svg" xmlns:xlink="http://www.w3.org/1999/xlink" width="60" height="60" viewBox="0 0 60 60">
  <defs>
    <circle id="bolan_vector-a" cx="30" cy="30" r="30"/>
  </defs>
  <g fill="none" fill-rule="evenodd">
    <use fill="#10AA6E" fill-rule="nonzero" xlink:href="#bolan_vector-a"/>
    <g transform="translate(11 10.4)">
      <polygon fill="#96E3C5" stroke="#96E3C5" stroke-linejoin="round" stroke-width="2" points="7 33.386 30.4 33.4 30.4 19.014 32.8 19 34.6 17.2 30.7 13.3 30.7 3.4 26.157 3.4 26.2 8.8 18.7 1.6 2.8 17.186 4.6 18.986 7 19"/>
      <path fill="#FFF" d="M26.8,19.6 L26.8,26.8 L20.8,26.8 L20.8,19.6 L26.8,19.6 Z M14.2,22 C15.1941125,22 16,22.8058875 16,23.8 C16,24.7941125 15.1941125,25.6 14.2,25.6 C13.2058875,25.6 12.4,24.7941125 12.4,23.8 C12.4,22.8058875 13.2058875,22 14.2,22 Z M18.4,2.2 L35.2,18.4 L34.4111004,18.4 C33.3773829,18.4 32.3838033,17.9998109 31.6386655,17.2833323 L17.2,3.4 L18.4,2.2 Z M18.7,10.3 C22,10.3 23.8,13 23.8,15.4 L13.6,15.4 C13.6,13 15.4,10.3 18.7,10.3 Z"/>
      <path fill="#006F44" fill-rule="nonzero" d="M17.8,19.1 C18.0761424,19.1 18.3,19.3238576 18.3,19.6 L18.2999998,32.399 L32.2,32.4 C32.7128358,32.4 33.1355072,32.7860402 33.1932723,33.2833789 L33.2,33.4 C33.2,33.9128358 32.8139598,34.3355072 32.3166211,34.3932723 L32.2,34.4 L5.2,34.4 C4.64771525,34.4 4.2,33.9522847 4.2,33.4 C4.2,32.8871642 4.58604019,32.4644928 5.08337887,32.4067277 L5.2,32.4 L10.0999998,32.399 L10.1,19.6 C10.1,19.3238576 10.3238576,19.1 10.6,19.1 L17.8,19.1 Z M17.3,20.1 L11.1,20.1 L11.0999998,32.399 L17.2999998,32.399 L17.3,20.1 Z M26.8,19.1 C27.0761424,19.1 27.3,19.3238576 27.3,19.6 L27.3,26.8 C27.3,27.0761424 27.0761424,27.3 26.8,27.3 L20.8,27.3 C20.5238576,27.3 20.3,27.0761424 20.3,26.8 L20.3,19.6 C20.3,19.3238576 20.5238576,19.1 20.8,19.1 L26.8,19.1 Z M26.3,20.1 L21.3,20.1 L21.3,26.3 L26.3,26.3 L26.3,20.1 Z M14.2,21.5 C15.4702549,21.5 16.5,22.5297451 16.5,23.8 C16.5,25.0702549 15.4702549,26.1 14.2,26.1 C12.9297451,26.1 11.9,25.0702549 11.9,23.8 C11.9,22.5297451 12.9297451,21.5 14.2,21.5 Z M14.2,22.5 C13.4820298,22.5 12.9,23.0820298 12.9,23.8 C12.9,24.5179702 13.4820298,25.1 14.2,25.1 C14.9179702,25.1 15.5,24.5179702 15.5,23.8 C15.5,23.0820298 14.9179702,22.5 14.2,22.5 Z M19.3071943,0.205321556 L19.4009315,0.286771429 L36.8009315,17.3867714 C37.1948368,17.7738852 37.2003424,18.4070263 36.8132286,18.8009315 C36.4558928,19.1645364 35.8889243,19.1971971 35.4939956,18.8955949 L35.3990685,18.8132286 L18.7,2.40207507 L2.00093153,18.8132286 C1.60702626,19.2003424 0.973885222,19.1948368 0.586771429,18.8009315 C0.22943562,18.4373267 0.20663939,17.8698759 0.515063848,17.4802519 L0.599068473,17.3867714 L17.9990685,0.286771429 C18.35821,-0.066178022 18.9172926,-0.0933279798 19.3071943,0.205321556 Z M18.7,9.8 C21.99649,9.8 24.3,12.4039678 24.3,15.4 C24.3,15.6761424 24.0761424,15.9 23.8,15.9 L13.6,15.9 C13.3238576,15.9 13.1,15.6761424 13.1,15.4 C13.1,12.4039678 15.40351,9.8 18.7,9.8 Z M18.7,10.8 C16.1701534,10.8 14.3610192,12.6500306 14.1259774,14.9 L23.2740226,14.9 C23.0389808,12.6500306 21.2298466,10.8 18.7,10.8 Z"/>
    </g>
  </g>
</svg>
