<svg xmlns="http://www.w3.org/2000/svg" xmlns:xlink="http://www.w3.org/1999/xlink" width="60" height="60" viewBox="0 0 60 60">
  <defs>
    <circle id="kreditkort_vector-a" cx="30" cy="30" r="30"/>
  </defs>
  <g fill="none" fill-rule="evenodd">
    <use fill="#10AA6E" fill-rule="nonzero" xlink:href="#kreditkort_vector-a"/>
    <g transform="rotate(-10 102.396 -93.787)">
      <path fill="#FFF" d="M3.8458278,-1.55376046e-16 L15.9541722,1.55376046e-16 C17.2914503,-9.02779573e-17 17.7763797,0.139238417 18.2652686,0.400699056 C18.7541574,0.662159695 19.1378403,1.04584256 19.3993009,1.53473144 C19.6607616,2.02362033 19.8,2.50854969 19.8,3.8458278 L19.8,27.3541722 C19.8,28.6914503 19.6607616,29.1763797 19.3993009,29.6652686 C19.1378403,30.1541574 18.7541574,30.5378403 18.2652686,30.7993009 C17.7763797,31.0607616 17.2914503,31.2 15.9541722,31.2 L3.8458278,31.2 C2.50854969,31.2 2.02362033,31.0607616 1.53473144,30.7993009 C1.04584256,30.5378403 0.662159695,30.1541574 0.400699056,29.6652686 C0.139238417,29.1763797 1.91909492e-16,28.6914503 -3.30292566e-16,27.3541722 L-1.23124504e-16,3.8458278 C7.15388826e-17,2.50854969 0.139238417,2.02362033 0.400699056,1.53473144 C0.662159695,1.04584256 1.04584256,0.662159695 1.53473144,0.400699056 C2.02362033,0.139238417 2.50854969,9.02779573e-17 3.8458278,-1.55376046e-16 Z"/>
      <path fill="#086845" d="M14.6569913,21.0660469 C14.4249765,21.5595233 14.0913163,21.9154528 13.5535105,22.111743 C13.3291041,22.2177177 13.2847358,21.8954767 13.1792434,21.8332631 C13.1073479,21.7907717 13.0070703,21.822344 12.8629373,21.8401193 C11.7214997,21.9804596 9.47418765,22.7353178 9.68380456,24.4365843 C9.76390694,25.0863988 10.2324674,25.6067075 10.9132949,25.7421385 C10.9752738,25.7544965 11.0802532,25.7797205 10.9851904,25.8465896 C10.9155176,25.8955986 9.85341302,26.6108433 9.64020561,26.7759844 C9.60105205,26.8030705 9.57839769,26.8742564 9.63003252,26.8836519 C9.75869217,26.9068445 10.2374257,26.993351 10.2374257,26.993351 C10.3455682,27.0128192 10.3942965,26.9880184 10.4358437,26.9387554 C10.4773909,26.8894078 10.8612326,26.3830654 11.3150892,26.0970522 C11.3757857,26.0587929 11.4892285,25.95595 11.5452232,26.025443 C11.7780074,26.3144188 13.1535115,27.6421498 14.5886008,26.2703191 C14.92209,25.9514639 16.5566232,24.2743211 14.7995001,21.0427697 C14.7720584,20.9924063 14.7015306,20.9713299 14.6569913,21.0660469"/>
      <path fill="#006F44" d="M9.6,7.2 L9.6,8.4 L6,8.4 L6,10.8 L5.8,10.8 C5.24771525,10.8 4.8,10.3522847 4.8,9.8 L4.8,7.2 L9.6,7.2 Z M7.8,9 L7.8,10.8 L6.6,10.8 L6.6,9 L7.8,9 Z M9.6,9 L9.6,9.8 C9.6,10.3522847 9.15228475,10.8 8.6,10.8 L8.4,10.8 L8.4,9 L9.6,9 Z M8.6,4.8 C9.15228475,4.8 9.6,5.24771525 9.6,5.8 L9.6,6.6 L8.4,6.6 L8.4,4.8 L8.6,4.8 Z M7.8,4.8 L7.8,6.6 L6.6,6.6 L6.6,4.8 L7.8,4.8 Z M4.8,5.8 C4.8,5.24771525 5.24771525,4.8 5.8,4.8 L6,4.8 L6,6.6 L4.8,6.6 L4.8,5.8 Z"/>
    </g>
  </g>
</svg>
