<svg xmlns="http://www.w3.org/2000/svg" xmlns:xlink="http://www.w3.org/1999/xlink" width="60" height="60" viewBox="0 0 60 60">
  <defs>
    <circle id="miljolan_vector-a" cx="30" cy="30" r="30"/>
  </defs>
  <g fill="none" fill-rule="evenodd">
    <use fill="#10AA6E" fill-rule="nonzero" xlink:href="#miljolan_vector-a"/>
    <g transform="translate(12 9.2)">
      <path fill="#96E3C5" d="M18.0444444,27.7 C13.3185185,27.7 9.88148148,27.7 7.73333333,27.7 C4.51111111,27.7 0,24.7685714 0,20.5342857 C0,17.7114286 2.4,15.8 7.2,14.8 C5.45185185,11.7371429 5.65185185,9.33714286 7.8,7.6 C9.94814815,5.86285714 12.2888889,5.83142857 14.8222222,7.50571429 C15.6814815,5.76857143 16.7555556,4.9 18.0444444,4.9 C19.3333333,4.9 20.4074074,5.76857143 21.2666667,7.50571429 C25.1333333,6.63714286 27.7111111,7.07142857 29,8.80857143 C30.2888889,10.5457143 30.7185185,12.5 30.2888889,14.6714286 C33.2962963,15.9742857 34.8,18.1457143 34.8,21.1857143 C34.8,25.7457143 32.2222222,27.7 29,27.7 C26.8518519,27.7 23.2,27.7 18.0444444,27.7 Z"/>
      <path fill="#96E3C5" d="M18,30.7 C16.8,31.6 13.2,32.8 10.8,30.7 C8.26815223,28.4846332 9,25.3 10.2,23.5 C8.4,22.9 3.9,20.8 4.2,16.3 C4.5,11.8 9,9.1 11.7,9.7 C10.8,4.9 15.9,0.7 20.4,1.6 C24.9,2.5 27.6,8.2 24.6,12.7 C27.9,13 30.6,15.7 30.9,19 C31.2,22.3 30,25.6 25.2,26.5 C26.1,28.3 25.5,30.1 24,31.3 C22.5,32.5 19.5,32.5 18,30.7 Z"/>
      <path fill="#006F44" fill-rule="nonzero" d="M17.7265659,31.4749923 C15.664635,32.6506885 12.4732275,32.8284582 10.4707477,31.0762883 C8.23440263,29.1194864 8.11235192,26.1892336 9.45407915,23.7644482 C6.04139926,22.4619835 3.45481247,19.9611647 3.70110742,16.2667405 C3.9740956,12.1719178 7.84131307,8.91652181 11.11842,9.11574869 C10.7407461,4.3684972 15.7303055,0.156159151 20.4980581,1.10970966 C25.3058875,2.07127556 27.8556148,7.77363958 25.4145481,12.3138731 C28.5966227,12.9522688 31.099748,15.6745477 31.3979466,18.9547321 C31.7593769,22.9304657 30.0173592,25.8622202 25.8933823,26.8625424 C26.4981275,28.6321563 25.8844898,30.4327206 24.3123475,31.6904344 C22.6614303,33.0111682 19.811549,32.9557307 18.1070441,31.5139163 L17.9289082,31.3541307 L17.7265659,31.4749923 Z M18.3841106,30.3799078 C19.6165561,31.8588424 22.2791719,32.0363501 23.6876525,30.9095656 C25.0808965,29.7949703 25.5070983,28.2322306 24.7527864,26.7236068 L24.4563442,26.1307223 L25.1078557,26.0085639 C29.1201971,25.2562499 30.7366754,22.72611 30.4020534,19.0452679 C30.1239057,15.9856433 27.6143567,13.4760943 24.5547321,13.1979466 L23.7178316,13.1218647 L24.1839749,12.4226499 C26.8759444,8.38469563 24.6477165,2.95944526 20.3019419,2.09029034 C15.9783634,1.22557463 11.3870557,5.31782711 12.1914361,9.60785573 L12.3310435,10.3524288 L11.5915348,10.1880935 C8.79961281,9.56766643 4.95109187,12.5502702 4.69889258,16.3332595 C4.47785065,19.6488885 7.04253381,21.920465 10.3581139,23.0256584 L10.9791459,23.232669 L10.6160251,23.7773501 C9.18916793,25.9176359 9.15515746,28.5963787 11.1292523,30.3237117 C12.9185454,31.8893431 16.0438898,31.5420827 17.7,30.3 L18.0800128,30.0149904 L18.3841106,30.3799078 Z"/>
      <path fill="#FFF" d="M17.8769677,27.1950256 C17.0158973,27.8291027 14.4326861,28.6745388 12.7105453,27.1950256 C10.893796,25.6342329 11.4189397,23.3905628 12.2800101,22.1224086 C10.9884045,21.6996905 7.75939049,20.2201772 7.97465809,17.0497916 C8.18992569,13.879406 11.4189397,11.9771746 13.3563481,12.3998927 C12.7105453,9.01814802 16.3700945,6.05912144 19.5991085,6.69319857 C22.8281225,7.32727569 24.7655309,11.3430975 22.6128549,14.5134831 C24.9807985,14.7248421 26.9182068,16.6270735 27.1334744,18.952023 C27.348742,21.2769724 26.4876716,23.6019219 23.0433901,24.235999 C23.6891929,25.5041532 23.2586577,26.7723075 22.1823197,27.6177436 C21.1059817,28.4631798 18.9533057,28.4631798 17.8769677,27.1950256 Z"/>
      <path fill="#006F44" fill-rule="nonzero" d="M17.8833789,9.90672773 L18,9.9 C18.5128358,9.9 18.9355072,10.2860402 18.9932723,10.7833789 L19,10.9 L19,21.881 L23.5527864,19.6055728 C24.0114807,19.3762256 24.5621719,19.5324861 24.8362552,19.951486 L24.8944272,20.0527864 C25.1414164,20.5467649 24.9411921,21.1474379 24.4472136,21.3944272 L24.4472136,21.3944272 L19,24.118 L19,39.299 L31.8,39.3 C32.3128358,39.3 32.7355072,39.6860402 32.7932723,40.1833789 L32.8,40.3 C32.8,40.8128358 32.4139598,41.2355072 31.9166211,41.2932723 L31.8,41.3 L4.8,41.3 C4.24771525,41.3 3.8,40.8522847 3.8,40.3 C3.8,39.7871642 4.18604019,39.3644928 4.68337887,39.3067277 L4.8,39.3 L17,39.299 L17,19.318034 L11.5527864,16.5944272 C11.0588079,16.3474379 10.8585836,15.7467649 11.1055728,15.2527864 C11.3525621,14.7588079 11.9532351,14.5585836 12.4472136,14.8055728 L12.4472136,14.8055728 L17,17.081 L17,10.9 C17,10.3871642 17.3860402,9.96449284 17.8833789,9.90672773 L18,9.9 Z"/>
    </g>
  </g>
</svg>
